<svg xmlns="http://www.w3.org/2000/svg" viewBox="0 0 441.8 82.58"><defs><style>.cls-1{fill:#edc38c;}</style></defs><title>Asset 1</title><g id="Layer_2" data-name="Layer 2"><g id="Layer_1-2" data-name="Layer 1"><path class="cls-1" d="M440.9,4.44c-3-5.88-14.4-4.82-19.5-3-3.74,1.35-7,4.14-10,6.64-4.18,3.45-7.79,8.64-12.45,11.35a2.59,2.59,0,0,0-1,1.05A234,234,0,0,1,360.5,35.19c1.66-1.63,3.26-3.37,4.85-5.16,3.92-4.43,12.87-12.65,7.48-19.15-6.11-7.38-16.24-1.12-21.59,3.47C347,18,344.91,21.94,342.63,27c-2.1,4.62-4.6,9.41-4.36,14.59-8.32,2.05-16.77,3.52-25.21,3.37a94.8,94.8,0,0,1-19.69-2.74A50.57,50.57,0,0,0,313,34.13c5.33-3.6,16.57-10.26,11.91-18.13s-16.49-4.07-22.5-.17c-9.32,6-15.44,13.6-20.34,23.43-4.71-1.31-9.37-2.67-13.94-3.84-13.39-3.45-26.7-7.34-37.89-15.78-2.77-2.09-5.46,2.59-2.72,4.66,7.59,5.72,16.19,9.44,25.11,12.32-1.41,3.41-2.59,7-1.9,10.67.76,4.13,2.9,8.59,4.9,12.27,3.69,6.8,9.94,13.44,18.25,13a2.71,2.71,0,0,0,2.33-1.34c.46-.92,1.7-1.41,2.33-2.25a8.14,8.14,0,0,0,1.5-3.9c.52-3.91-1.65-7.82-3.24-11.27a44.45,44.45,0,0,0-6.46-10.71,22.51,22.51,0,0,0-2.1-2.09c13.32,3.52,27.2,8.17,41,9.12a2.74,2.74,0,0,0,.35.9c5.87,9.68,13.84,19.89,23.35,26.11,4.52,3,9.12,5.85,14.73,5.4,4.07-.33,8.79-2.34,10.47-6.33,4.06-9.7-4.57-17.4-11.93-21.68-5.19-3-10.76-3.86-16.46-5.45l-.47-.15c9.65-1.66,19.19-4.54,28.43-7.27q1,0,2,0a2.75,2.75,0,0,0,1,1.29c5.06,3.6,10,7.64,15.71,10.19,5.11,2.29,10.64,3.38,16.06,4.66,8,1.89,21.32,3.68,23.6-7.39,2.08-10.14-10.87-12.75-18-14.57a65.93,65.93,0,0,0-17.24-1.87q9.4-3.61,18.45-8.09a3,3,0,0,0,.62.07c10,.11,21,.18,30.24-4.26C435.8,18.93,444.66,11.82,440.9,4.44Zm-27.05,8.63c5.41-4.63,10-7.76,17.41-7.31l3,.36.14.71c-4.15,3.41-9.62,4-14.5,6a85.37,85.37,0,0,1-9.23,3.27C411.69,15.06,412.74,14,413.84,13.08ZM368,18.22c-2.5,4.6-7,8.9-10.72,12.58-.9.9-1.79,1.73-2.68,2.51.85-1.1,1.7-2.25,2.59-3.5,3.44-4.86,7.83-10.56,9-16.6l.22.07C368.87,14.33,369.05,16.21,368,18.22Zm-16.61,3.57a31.77,31.77,0,0,1,7.28-6.39c.52-.33,1.1-.7,1.73-1-1.5,4.51-5.42,9.26-7.87,12.73a42.76,42.76,0,0,1-7.93,9,47.59,47.59,0,0,1,2-4.94C348.06,28,349.16,24.48,351.35,21.78Zm-38.73,6.09A78.93,78.93,0,0,1,304.72,33,35.73,35.73,0,0,1,294,36.73a22.37,22.37,0,0,1,2-1.66c2.5-1.81,5-3.69,7.64-5.31s5.11-2.25,7.79-3.3c2.19-.86,4.15-1.89,6.29-2.63-.34.28-.76.61-1.31,1.06C315.26,25.93,313.95,26.92,312.62,27.88ZM298,26a59.5,59.5,0,0,1,8-6,22.49,22.49,0,0,1,5.48-2.56l3.07-.58c2-.58,3.14-.14,3.52,1.31-3.15.75-5.78,2.19-8.81,3.37-3.48,1.36-6.47,2.4-9.59,4.5-1.7,1.14-3.41,2.3-5.1,3.48A34.34,34.34,0,0,1,298,26Zm-37.7,30.86c-2.08-3.84-3.69-7.56-3.87-11.47,3.32,7.48,9.12,14.36,13.45,21.2C265.61,65,262.45,60.78,260.31,56.83Zm9.18-5.62a64.86,64.86,0,0,1,4,8.2,7.09,7.09,0,0,1,.6,3.53c-2-3.15-4-6.22-6.07-9.33-2.25-3.46-5.19-7.3-7-11.33A30,30,0,0,1,269.49,51.22Zm59.9,16.34a91.34,91.34,0,0,1-8.5-9.67c9.68,7.14,20,13.9,31.79,16.17a2.84,2.84,0,0,0,.39,0C349.81,83.13,333.29,71.36,329.39,67.56Zm5.79-11.69c6.07,1.53,16.17,5.85,18.09,12.8-11.15-2.38-21-9-30.26-15.87C327.05,53.75,331.06,54.83,335.19,55.87Zm62.57-2.41c-4.17-.84-8.4-1.87-12.5-3-6.07-1.67-11.11-4.73-16.09-8.17,4.27.59,8.52,1.52,13,2.59C391,47,400.58,48.28,408.57,52.7,405.52,54.38,400.34,54,397.76,53.46ZM384.85,39.1a62.69,62.69,0,0,1,13.69,2.41c3,.83,11.35,2.37,12.3,6.29-8.34-4.52-18.11-5.9-27.27-8.11L380.84,39C382.18,39,383.52,39,384.85,39.1Zm37.37-20.31c-1.36.35-2.74.62-4.13.85,1.89-.85,3.73-1.83,5.72-2.53,2.79-1,5.51-1.73,8.08-2.76-.61.45-1.15.81-1.43,1A28.35,28.35,0,0,1,422.22,18.79Z"/><path class="cls-1" d="M211.52,19.63C200.33,28.06,187,32,173.63,35.41c-4.57,1.18-9.23,2.53-13.94,3.85-4.79-9.59-10.6-16.78-19.55-22.88-6.07-4.14-18.38-8.7-23.3-.38-4.51,7.62,5.94,14,11.13,17.61a51.8,51.8,0,0,0,20.48,8.57,94.9,94.9,0,0,1-19.72,2.74c-8.45.14-16.91-1.32-25.23-3.38.21-4.63-1.74-9-3.67-13.13-2.43-5.2-4.26-9.58-8.64-13.47-5.39-4.8-15.9-11.7-22.24-4-5.24,6.33,3.15,14.19,7,18.57,1.74,2,3.5,3.94,5.35,5.74A233.64,233.64,0,0,1,43.85,20.51a2.59,2.59,0,0,0-1-1.05C38.39,16.88,35,12,31.07,8.69c-3-2.53-6.28-5.45-9.95-6.95C16-.37,4-1.63.89,4.44c-3.6,7.05,4.52,14,10,16.82,9.43,4.8,20.69,4.77,31,4.65a3,3,0,0,0,.62-.07q9,4.47,18.36,8.05a65.27,65.27,0,0,0-16.21,1.66c-7.35,1.77-21,4.39-19,14.81C27.76,60.95,40.52,59.83,48.32,58,53.94,56.65,59.7,55.57,65,53.23c5.83-2.56,10.88-6.66,16-10.33a2.75,2.75,0,0,0,1-1.28q1,0,2,0c9.24,2.73,18.79,5.61,28.44,7.27-5.51,1.58-11.05,2.35-16.16,5.14-7.57,4.14-17,12.2-12.71,22.14,1.68,3.9,6.12,5.85,10.11,6.29,5.48.6,9.91-2.05,14.36-4.89,9.86-6.29,18-16.61,24.08-26.57a2.74,2.74,0,0,0,.35-.9c13.83-.95,27.7-5.6,41-9.12a22.71,22.71,0,0,0-2.1,2.09A44.45,44.45,0,0,0,165,53.81c-1.58,3.45-3.76,7.35-3.23,11.27a8.14,8.14,0,0,0,1.5,3.9c.63.83,1.88,1.33,2.33,2.25a2.71,2.71,0,0,0,2.33,1.34c8.32.43,14.56-6.21,18.25-13a52.23,52.23,0,0,0,4.73-11.42c1-4-.22-7.84-1.73-11.53,8.92-2.89,17.52-6.6,25.11-12.33C217,22.22,214.3,17.54,211.52,19.63Zm-85.68-2.74a9.76,9.76,0,0,1,4.48.52A22.11,22.11,0,0,1,135,19.46,53,53,0,0,1,143.78,26a34.65,34.65,0,0,1,3.28,3.31c-1.64-1.13-3.31-2.22-4.92-3.29a36.42,36.42,0,0,0-8.23-4c-3.52-1.27-6.63-3.05-10.27-3.89C123.86,17.06,124.59,16.64,125.84,16.89Zm4.08,11.52c-1.59-1.12-3.16-2.28-4.65-3.53-.53-.45-1-.77-1.28-1.05,2,.69,3.89,1.65,5.95,2.49,2.81,1.14,5.5,1.82,8.11,3.44,2.35,1.45,4.56,3.15,6.82,4.73a27.28,27.28,0,0,1,2.79,2.23A35.24,35.24,0,0,1,137.07,33,81.74,81.74,0,0,1,129.93,28.41ZM89.86,21.15c2.3,2.66,3.47,5.93,4.89,9.1.85,1.9,1.79,3.82,2.46,5.81a42.82,42.82,0,0,1-7.92-9C86.85,23.62,83,18.9,81.44,14.41a7.32,7.32,0,0,1,1,.5A33.31,33.31,0,0,1,89.86,21.15Zm-16-2.93c-1.58-3-.23-4.3,1.92-4.64C77,19.49,81.26,25,84.64,29.8c.88,1.25,1.73,2.41,2.57,3.5-.7-.61-1.39-1.24-2.09-1.93C81.25,27.57,76.38,23,73.83,18.22ZM10.54,5.77C17.64,5.33,22,8.08,27.26,12.5c1.31,1.1,2.55,2.33,3.78,3.6a85.37,85.37,0,0,1-9.13-3.25c-5-2.09-10.52-2.63-14.68-6.17C7.63,5.63,8.73,5.32,10.54,5.77Zm.78,9.57c-.47-.3-1-.65-1.57-1,2.62,1.06,5.39,1.82,8.22,2.82,2,.68,3.76,1.68,5.62,2.54-1-.17-2.06-.36-3.07-.6A29.42,29.42,0,0,1,11.32,15.33Zm31,26.44A64.65,64.65,0,0,1,56.93,39.1C58.28,39,59.62,39,61,39l-2.76.65C49,41.9,39.28,43.28,30.94,47.8,31.82,43.91,39.36,42.62,42.3,41.77Zm14.23,8.7C52.64,51.54,38.41,56.11,33,52.85c8-4.53,17.79-5.81,26.68-8,4.43-1.07,8.69-2,13-2.59C67.63,45.73,62.58,48.79,56.53,50.46Zm50.08,5.41c4.14-1.06,8.14-2.14,12.19-3.08-9.22,6.86-19.08,13.47-30.22,15.87C90.56,61.71,100.43,57.45,106.6,55.87Zm5.79,11.69a49.4,49.4,0,0,1-10.06,7.24c-3.54,2-11.46,4.13-13.57-.7a2.75,2.75,0,0,0,.34,0c11.77-2.28,22.09-9,31.77-16.16A95,95,0,0,1,112.4,67.56Zm55.39-6.81c.77-3.15,2.9-6.73,4.52-9.53a30,30,0,0,1,8.52-8.93c-1.82,4-4.76,7.89-7,11.33-2.05,3.16-4.18,6.28-6.16,9.48A6,6,0,0,1,167.78,60.75Zm4.12,5.82c4.33-6.85,10.15-13.73,13.46-21.22-.18,3.92-1.79,7.63-3.88,11.49S176.18,65,171.9,66.56Z"/></g></g></svg>